<mxfile host="www.draw.io" modified="2020-06-23T02:10:34.034Z" agent="5.0 (Macintosh; Intel Mac OS X 10_15_2) AppleWebKit/537.36 (KHTML, like Gecko) Chrome/84.0.4147.45 Safari/537.36" etag="GjZYT8jVMTDur1_PDhVi" version="13.3.0" type="github">
  <diagram name="Page-1" id="13e1069c-82ec-6db2-03f1-153e76fe0fe0">
    <mxGraphModel dx="678" dy="442" grid="0" gridSize="10" guides="1" tooltips="1" connect="1" arrows="1" fold="1" page="0" pageScale="1" pageWidth="1100" pageHeight="850" background="#ffffff" math="0" shadow="0">
      <root>
        <mxCell id="0" />
        <mxCell id="1" parent="0" />
        <mxCell id="7baba1c4bc27f4b0-2" value="SKY Play" style="shape=umlLifeline;perimeter=lifelinePerimeter;whiteSpace=wrap;html=1;container=1;collapsible=0;recursiveResize=0;outlineConnect=0;rounded=1;shadow=0;comic=0;labelBackgroundColor=none;strokeWidth=1;fontFamily=Verdana;fontSize=12;align=center;fillColor=#dae8fc;strokeColor=#6c8ebf;" parent="1" vertex="1">
          <mxGeometry x="240" y="80" width="100" height="580" as="geometry" />
        </mxCell>
        <mxCell id="7baba1c4bc27f4b0-10" value="" style="html=1;points=[];perimeter=orthogonalPerimeter;rounded=0;shadow=0;comic=0;labelBackgroundColor=none;strokeWidth=1;fontFamily=Verdana;fontSize=12;align=center;fillColor=#dae8fc;strokeColor=#6c8ebf;" parent="7baba1c4bc27f4b0-2" vertex="1">
          <mxGeometry x="45" y="100" width="10" height="305" as="geometry" />
        </mxCell>
        <mxCell id="uCjRWYr6qWFUnSm8u8Xy-46" style="edgeStyle=orthogonalEdgeStyle;rounded=0;orthogonalLoop=1;jettySize=auto;html=1;entryX=1;entryY=0.021;entryDx=0;entryDy=0;entryPerimeter=0;curved=1;exitX=0.9;exitY=0.086;exitDx=0;exitDy=0;exitPerimeter=0;" edge="1" parent="7baba1c4bc27f4b0-2" source="uCjRWYr6qWFUnSm8u8Xy-32" target="7baba1c4bc27f4b0-10">
          <mxGeometry relative="1" as="geometry">
            <Array as="points">
              <mxPoint x="75" y="453" />
              <mxPoint x="75" y="105" />
            </Array>
          </mxGeometry>
        </mxCell>
        <mxCell id="uCjRWYr6qWFUnSm8u8Xy-32" value="" style="html=1;points=[];perimeter=orthogonalPerimeter;rounded=0;shadow=0;comic=0;labelBackgroundColor=none;strokeWidth=1;fontFamily=Verdana;fontSize=12;align=center;fillColor=#dae8fc;strokeColor=#6c8ebf;" vertex="1" parent="7baba1c4bc27f4b0-2">
          <mxGeometry x="45" y="447" width="10" height="70" as="geometry" />
        </mxCell>
        <mxCell id="uCjRWYr6qWFUnSm8u8Xy-47" value="" style="html=1;points=[];perimeter=orthogonalPerimeter;rounded=0;shadow=0;comic=0;labelBackgroundColor=none;strokeWidth=1;fontFamily=Verdana;fontSize=12;align=center;fillColor=#dae8fc;strokeColor=#6c8ebf;" vertex="1" parent="7baba1c4bc27f4b0-2">
          <mxGeometry x="45" y="557" width="10" height="70" as="geometry" />
        </mxCell>
        <mxCell id="7baba1c4bc27f4b0-3" value="&lt;font style=&quot;font-size: 12px&quot;&gt;Remote&lt;/font&gt;" style="shape=umlLifeline;perimeter=lifelinePerimeter;whiteSpace=wrap;html=1;container=1;collapsible=0;recursiveResize=0;outlineConnect=0;rounded=1;shadow=0;comic=0;labelBackgroundColor=none;strokeWidth=1;fontFamily=Verdana;fontSize=12;align=center;fillColor=#f5f5f5;strokeColor=#666666;fontColor=#333333;" parent="1" vertex="1">
          <mxGeometry x="390" y="80" width="100" height="580" as="geometry" />
        </mxCell>
        <mxCell id="7baba1c4bc27f4b0-13" value="" style="html=1;points=[];perimeter=orthogonalPerimeter;rounded=0;shadow=0;comic=0;labelBackgroundColor=none;strokeWidth=1;fontFamily=Verdana;fontSize=12;align=center;fillColor=#f5f5f5;strokeColor=#666666;fontColor=#333333;" parent="7baba1c4bc27f4b0-3" vertex="1">
          <mxGeometry x="45" y="120" width="10" height="20" as="geometry" />
        </mxCell>
        <mxCell id="7baba1c4bc27f4b0-4" value="CACHE" style="shape=umlLifeline;perimeter=lifelinePerimeter;whiteSpace=wrap;html=1;container=1;collapsible=0;recursiveResize=0;outlineConnect=0;rounded=1;shadow=0;comic=0;labelBackgroundColor=none;strokeWidth=1;fontFamily=Verdana;fontSize=12;align=center;fillColor=#f5f5f5;strokeColor=#666666;fontColor=#333333;" parent="1" vertex="1">
          <mxGeometry x="960" y="80" width="100" height="580" as="geometry" />
        </mxCell>
        <mxCell id="uCjRWYr6qWFUnSm8u8Xy-33" value="" style="html=1;points=[];perimeter=orthogonalPerimeter;rounded=0;shadow=0;comic=0;labelBackgroundColor=none;strokeWidth=1;fontFamily=Verdana;fontSize=12;align=center;fillColor=#f5f5f5;strokeColor=#666666;fontColor=#333333;" vertex="1" parent="7baba1c4bc27f4b0-4">
          <mxGeometry x="45" y="467" width="10" height="30" as="geometry" />
        </mxCell>
        <mxCell id="uCjRWYr6qWFUnSm8u8Xy-63" value="" style="html=1;points=[];perimeter=orthogonalPerimeter;rounded=0;shadow=0;comic=0;labelBackgroundColor=none;strokeWidth=1;fontFamily=Verdana;fontSize=12;align=center;fillColor=#f5f5f5;strokeColor=#666666;fontColor=#333333;" vertex="1" parent="7baba1c4bc27f4b0-4">
          <mxGeometry x="45" y="378" width="10" height="30" as="geometry" />
        </mxCell>
        <mxCell id="7baba1c4bc27f4b0-8" value="APP" style="shape=umlLifeline;perimeter=lifelinePerimeter;whiteSpace=wrap;html=1;container=1;collapsible=0;recursiveResize=0;outlineConnect=0;rounded=1;shadow=0;comic=0;labelBackgroundColor=none;strokeWidth=1;fontFamily=Verdana;fontSize=12;align=center;fillColor=#f8cecc;strokeColor=#b85450;" parent="1" vertex="1">
          <mxGeometry x="100" y="80" width="100" height="790" as="geometry" />
        </mxCell>
        <mxCell id="7baba1c4bc27f4b0-9" value="" style="html=1;points=[];perimeter=orthogonalPerimeter;rounded=0;shadow=0;comic=0;labelBackgroundColor=none;strokeWidth=1;fontFamily=Verdana;fontSize=12;align=center;fillColor=#f8cecc;strokeColor=#b85450;" parent="7baba1c4bc27f4b0-8" vertex="1">
          <mxGeometry x="45" y="100" width="10" height="640" as="geometry" />
        </mxCell>
        <mxCell id="7baba1c4bc27f4b0-16" value="" style="html=1;points=[];perimeter=orthogonalPerimeter;rounded=0;shadow=0;comic=0;labelBackgroundColor=none;strokeWidth=1;fontFamily=Verdana;fontSize=12;align=center;fillColor=#f5f5f5;strokeColor=#666666;fontColor=#333333;" parent="1" vertex="1">
          <mxGeometry x="1005" y="378" width="10" height="30" as="geometry" />
        </mxCell>
        <mxCell id="7baba1c4bc27f4b0-11" value="&lt;b&gt;Page&lt;/b&gt;" style="html=1;verticalAlign=bottom;endArrow=block;entryX=0;entryY=0;labelBackgroundColor=none;fontFamily=Verdana;fontSize=12;edgeStyle=elbowEdgeStyle;elbow=vertical;" parent="1" source="7baba1c4bc27f4b0-9" target="7baba1c4bc27f4b0-10" edge="1">
          <mxGeometry relative="1" as="geometry">
            <mxPoint x="220" y="190" as="sourcePoint" />
          </mxGeometry>
        </mxCell>
        <mxCell id="7baba1c4bc27f4b0-14" value="" style="html=1;verticalAlign=bottom;endArrow=block;entryX=0;entryY=0;labelBackgroundColor=none;fontFamily=Verdana;fontSize=12;edgeStyle=elbowEdgeStyle;elbow=vertical;" parent="1" source="7baba1c4bc27f4b0-10" target="7baba1c4bc27f4b0-13" edge="1">
          <mxGeometry relative="1" as="geometry">
            <mxPoint x="370" y="200" as="sourcePoint" />
          </mxGeometry>
        </mxCell>
        <mxCell id="uCjRWYr6qWFUnSm8u8Xy-10" value="&lt;font style=&quot;font-size: 12px&quot;&gt;&lt;b&gt;get flags&lt;/b&gt;&lt;/font&gt;" style="edgeLabel;html=1;align=center;verticalAlign=middle;resizable=0;points=[];" vertex="1" connectable="0" parent="7baba1c4bc27f4b0-14">
          <mxGeometry y="18" relative="1" as="geometry">
            <mxPoint x="-18" y="17" as="offset" />
          </mxGeometry>
        </mxCell>
        <mxCell id="7baba1c4bc27f4b0-40" value="&lt;br&gt;Home SKY Play" style="shape=note;whiteSpace=wrap;html=1;size=14;verticalAlign=top;align=left;spacingTop=-6;rounded=0;shadow=0;comic=0;labelBackgroundColor=none;strokeWidth=1;fontFamily=Verdana;fontSize=12;fillColor=#f8cecc;strokeColor=#b85450;" parent="1" vertex="1">
          <mxGeometry x="100" y="30" width="100" height="35" as="geometry" />
        </mxCell>
        <mxCell id="7baba1c4bc27f4b0-41" value="&lt;font style=&quot;font-size: 11px&quot;&gt;&lt;br&gt;BFF-MS-SKYPLAY&lt;/font&gt;" style="shape=note;whiteSpace=wrap;html=1;size=14;verticalAlign=top;align=left;spacingTop=-6;rounded=0;shadow=0;comic=0;labelBackgroundColor=none;strokeWidth=1;fontFamily=Verdana;fontSize=12;fillColor=#dae8fc;strokeColor=#6c8ebf;" parent="1" vertex="1">
          <mxGeometry x="240" y="30" width="100" height="40" as="geometry" />
        </mxCell>
        <mxCell id="7baba1c4bc27f4b0-42" value="bff-ms-remote-config" style="shape=note;whiteSpace=wrap;html=1;size=14;verticalAlign=top;align=left;spacingTop=-6;rounded=0;shadow=0;comic=0;labelBackgroundColor=none;strokeWidth=1;fontFamily=Verdana;fontSize=12;fillColor=#f5f5f5;strokeColor=#666666;fontColor=#333333;" parent="1" vertex="1">
          <mxGeometry x="390" y="30" width="100" height="35" as="geometry" />
        </mxCell>
        <mxCell id="7baba1c4bc27f4b0-43" value="&lt;br&gt;&lt;div style=&quot;text-align: center&quot;&gt;&lt;span&gt;&amp;nbsp; &amp;nbsp; &amp;nbsp; &amp;nbsp;REDIS&lt;/span&gt;&lt;/div&gt;" style="shape=note;whiteSpace=wrap;html=1;size=14;verticalAlign=top;align=left;spacingTop=-6;rounded=0;shadow=0;comic=0;labelBackgroundColor=none;strokeWidth=1;fontFamily=Verdana;fontSize=12;fillColor=#f5f5f5;strokeColor=#666666;fontColor=#333333;" parent="1" vertex="1">
          <mxGeometry x="960" y="30" width="100" height="35" as="geometry" />
        </mxCell>
        <mxCell id="uCjRWYr6qWFUnSm8u8Xy-2" value="Recommendation" style="shape=umlLifeline;perimeter=lifelinePerimeter;whiteSpace=wrap;html=1;container=1;collapsible=0;recursiveResize=0;outlineConnect=0;rounded=1;shadow=0;comic=0;labelBackgroundColor=none;strokeWidth=1;fontFamily=Verdana;fontSize=12;align=center;fillColor=#f5f5f5;strokeColor=#666666;fontColor=#333333;" vertex="1" parent="1">
          <mxGeometry x="540" y="80" width="100" height="580" as="geometry" />
        </mxCell>
        <mxCell id="uCjRWYr6qWFUnSm8u8Xy-3" value="" style="html=1;points=[];perimeter=orthogonalPerimeter;rounded=0;shadow=0;comic=0;labelBackgroundColor=none;strokeColor=#666666;strokeWidth=1;fillColor=#f5f5f5;fontFamily=Verdana;fontSize=12;fontColor=#333333;align=center;" vertex="1" parent="uCjRWYr6qWFUnSm8u8Xy-2">
          <mxGeometry x="45" y="188" width="10" height="100" as="geometry" />
        </mxCell>
        <mxCell id="uCjRWYr6qWFUnSm8u8Xy-4" value="&lt;font style=&quot;font-size: 10px&quot;&gt;BFF-MS-RECOMMENDTION&lt;/font&gt;" style="shape=note;whiteSpace=wrap;html=1;size=14;verticalAlign=top;align=left;spacingTop=-6;rounded=0;shadow=0;comic=0;labelBackgroundColor=none;strokeWidth=1;fontFamily=Verdana;fontSize=12;fillColor=#f5f5f5;strokeColor=#666666;fontColor=#333333;" vertex="1" parent="1">
          <mxGeometry x="540" y="30" width="100" height="35" as="geometry" />
        </mxCell>
        <mxCell id="uCjRWYr6qWFUnSm8u8Xy-9" style="edgeStyle=orthogonalEdgeStyle;rounded=0;orthogonalLoop=1;jettySize=auto;html=1;dashed=1;" edge="1" parent="1" source="7baba1c4bc27f4b0-13">
          <mxGeometry relative="1" as="geometry">
            <mxPoint x="296" y="220" as="targetPoint" />
            <Array as="points">
              <mxPoint x="296" y="220" />
            </Array>
          </mxGeometry>
        </mxCell>
        <mxCell id="uCjRWYr6qWFUnSm8u8Xy-12" value="LIFERAY" style="shape=umlLifeline;perimeter=lifelinePerimeter;whiteSpace=wrap;html=1;container=1;collapsible=0;recursiveResize=0;outlineConnect=0;rounded=1;shadow=0;comic=0;labelBackgroundColor=none;strokeWidth=1;fontFamily=Verdana;fontSize=12;align=center;fillColor=#f5f5f5;strokeColor=#666666;fontColor=#333333;" vertex="1" parent="1">
          <mxGeometry x="686" y="80" width="100" height="580" as="geometry" />
        </mxCell>
        <mxCell id="uCjRWYr6qWFUnSm8u8Xy-13" value="" style="html=1;points=[];perimeter=orthogonalPerimeter;rounded=0;shadow=0;comic=0;labelBackgroundColor=none;strokeColor=#666666;strokeWidth=1;fillColor=#f5f5f5;fontFamily=Verdana;fontSize=12;fontColor=#333333;align=center;" vertex="1" parent="uCjRWYr6qWFUnSm8u8Xy-12">
          <mxGeometry x="45" y="188" width="10" height="100" as="geometry" />
        </mxCell>
        <mxCell id="uCjRWYr6qWFUnSm8u8Xy-14" value="&lt;font style=&quot;font-size: 10px&quot;&gt;&lt;br&gt;BFB-MS-CMS&lt;/font&gt;" style="shape=note;whiteSpace=wrap;html=1;size=14;verticalAlign=top;align=left;spacingTop=-6;rounded=0;shadow=0;comic=0;labelBackgroundColor=none;strokeWidth=1;fontFamily=Verdana;fontSize=12;fillColor=#f5f5f5;strokeColor=#666666;fontColor=#333333;" vertex="1" parent="1">
          <mxGeometry x="686" y="30" width="100" height="35" as="geometry" />
        </mxCell>
        <mxCell id="uCjRWYr6qWFUnSm8u8Xy-15" style="edgeStyle=orthogonalEdgeStyle;rounded=0;orthogonalLoop=1;jettySize=auto;html=1;entryX=0.1;entryY=0.333;entryDx=0;entryDy=0;entryPerimeter=0;" edge="1" parent="1">
          <mxGeometry relative="1" as="geometry">
            <mxPoint x="295" y="296.01" as="sourcePoint" />
            <mxPoint x="732" y="296" as="targetPoint" />
            <Array as="points">
              <mxPoint x="490" y="296.01" />
              <mxPoint x="490" y="296.01" />
            </Array>
          </mxGeometry>
        </mxCell>
        <mxCell id="uCjRWYr6qWFUnSm8u8Xy-28" value="&lt;font style=&quot;font-size: 12px&quot;&gt;&lt;b&gt;get pagina não recomendada&lt;/b&gt;&lt;/font&gt;" style="edgeLabel;html=1;align=center;verticalAlign=middle;resizable=0;points=[];" vertex="1" connectable="0" parent="uCjRWYr6qWFUnSm8u8Xy-15">
          <mxGeometry x="0.1625" y="-1" relative="1" as="geometry">
            <mxPoint as="offset" />
          </mxGeometry>
        </mxCell>
        <mxCell id="uCjRWYr6qWFUnSm8u8Xy-16" value="&lt;font style=&quot;font-size: 11px&quot;&gt;SPECIAL-CAROULSEL&lt;/font&gt;" style="shape=umlLifeline;perimeter=lifelinePerimeter;whiteSpace=wrap;html=1;container=1;collapsible=0;recursiveResize=0;outlineConnect=0;rounded=1;shadow=0;comic=0;labelBackgroundColor=none;strokeWidth=1;fontFamily=Verdana;fontSize=12;align=center;fillColor=#f5f5f5;strokeColor=#666666;fontColor=#333333;" vertex="1" parent="1">
          <mxGeometry x="825" y="80" width="100" height="580" as="geometry" />
        </mxCell>
        <mxCell id="uCjRWYr6qWFUnSm8u8Xy-17" value="" style="html=1;points=[];perimeter=orthogonalPerimeter;rounded=0;shadow=0;comic=0;labelBackgroundColor=none;strokeColor=#666666;strokeWidth=1;fillColor=#f5f5f5;fontFamily=Verdana;fontSize=12;fontColor=#333333;align=center;" vertex="1" parent="uCjRWYr6qWFUnSm8u8Xy-16">
          <mxGeometry x="45" y="188" width="10" height="100" as="geometry" />
        </mxCell>
        <mxCell id="uCjRWYr6qWFUnSm8u8Xy-59" value="" style="html=1;points=[];perimeter=orthogonalPerimeter;rounded=0;shadow=0;comic=0;labelBackgroundColor=none;strokeColor=#666666;strokeWidth=1;fillColor=#f5f5f5;fontFamily=Verdana;fontSize=12;fontColor=#333333;align=center;" vertex="1" parent="uCjRWYr6qWFUnSm8u8Xy-16">
          <mxGeometry x="45" y="331" width="10" height="31" as="geometry" />
        </mxCell>
        <mxCell id="uCjRWYr6qWFUnSm8u8Xy-18" value="&lt;font style=&quot;font-size: 10px&quot;&gt;BFB-MS-SPECIAL-CAROUSEL&lt;/font&gt;" style="shape=note;whiteSpace=wrap;html=1;size=14;verticalAlign=top;align=left;spacingTop=-6;rounded=0;shadow=0;comic=0;labelBackgroundColor=none;strokeWidth=1;fontFamily=Verdana;fontSize=12;fillColor=#f5f5f5;strokeColor=#666666;fontColor=#333333;" vertex="1" parent="1">
          <mxGeometry x="825" y="30" width="100" height="35" as="geometry" />
        </mxCell>
        <mxCell id="uCjRWYr6qWFUnSm8u8Xy-19" style="edgeStyle=orthogonalEdgeStyle;rounded=0;orthogonalLoop=1;jettySize=auto;html=1;" edge="1" parent="1">
          <mxGeometry relative="1" as="geometry">
            <mxPoint x="295" y="320" as="sourcePoint" />
            <mxPoint x="870" y="320" as="targetPoint" />
            <Array as="points">
              <mxPoint x="460" y="320" />
              <mxPoint x="460" y="320" />
            </Array>
          </mxGeometry>
        </mxCell>
        <mxCell id="uCjRWYr6qWFUnSm8u8Xy-29" value="&lt;font style=&quot;font-size: 12px&quot;&gt;&lt;b&gt;get carousel continuar assistindo&lt;/b&gt;&lt;/font&gt;" style="edgeLabel;html=1;align=center;verticalAlign=middle;resizable=0;points=[];" vertex="1" connectable="0" parent="uCjRWYr6qWFUnSm8u8Xy-19">
          <mxGeometry x="0.2174" y="1" relative="1" as="geometry">
            <mxPoint as="offset" />
          </mxGeometry>
        </mxCell>
        <mxCell id="uCjRWYr6qWFUnSm8u8Xy-21" style="edgeStyle=orthogonalEdgeStyle;rounded=0;orthogonalLoop=1;jettySize=auto;html=1;" edge="1" parent="1">
          <mxGeometry relative="1" as="geometry">
            <mxPoint x="295" y="278" as="sourcePoint" />
            <mxPoint x="580" y="278" as="targetPoint" />
            <Array as="points">
              <mxPoint x="380" y="278" />
              <mxPoint x="380" y="278" />
            </Array>
          </mxGeometry>
        </mxCell>
        <mxCell id="uCjRWYr6qWFUnSm8u8Xy-27" value="&lt;font style=&quot;font-size: 12px&quot;&gt;&lt;b&gt;get pagina recomendada&lt;/b&gt;&lt;/font&gt;" style="edgeLabel;html=1;align=center;verticalAlign=middle;resizable=0;points=[];" vertex="1" connectable="0" parent="uCjRWYr6qWFUnSm8u8Xy-21">
          <mxGeometry x="-0.0807" relative="1" as="geometry">
            <mxPoint as="offset" />
          </mxGeometry>
        </mxCell>
        <mxCell id="uCjRWYr6qWFUnSm8u8Xy-23" style="edgeStyle=orthogonalEdgeStyle;rounded=0;orthogonalLoop=1;jettySize=auto;html=1;dashed=1;" edge="1" parent="1">
          <mxGeometry relative="1" as="geometry">
            <mxPoint x="582" y="339" as="sourcePoint" />
            <mxPoint x="297" y="339" as="targetPoint" />
            <Array as="points">
              <mxPoint x="367" y="339" />
              <mxPoint x="367" y="339" />
            </Array>
          </mxGeometry>
        </mxCell>
        <mxCell id="uCjRWYr6qWFUnSm8u8Xy-24" style="edgeStyle=orthogonalEdgeStyle;rounded=0;orthogonalLoop=1;jettySize=auto;html=1;dashed=1;" edge="1" parent="1">
          <mxGeometry relative="1" as="geometry">
            <mxPoint x="727" y="354" as="sourcePoint" />
            <mxPoint x="296" y="354" as="targetPoint" />
            <Array as="points">
              <mxPoint x="396" y="354" />
              <mxPoint x="396" y="354" />
            </Array>
          </mxGeometry>
        </mxCell>
        <mxCell id="uCjRWYr6qWFUnSm8u8Xy-25" style="edgeStyle=orthogonalEdgeStyle;rounded=0;orthogonalLoop=1;jettySize=auto;html=1;dashed=1;" edge="1" parent="1">
          <mxGeometry relative="1" as="geometry">
            <mxPoint x="866" y="368" as="sourcePoint" />
            <mxPoint x="296" y="368" as="targetPoint" />
            <Array as="points">
              <mxPoint x="676" y="368" />
              <mxPoint x="676" y="368" />
            </Array>
          </mxGeometry>
        </mxCell>
        <mxCell id="uCjRWYr6qWFUnSm8u8Xy-26" style="edgeStyle=orthogonalEdgeStyle;rounded=0;orthogonalLoop=1;jettySize=auto;html=1;entryX=-0.4;entryY=0.433;entryDx=0;entryDy=0;entryPerimeter=0;" edge="1" parent="1">
          <mxGeometry relative="1" as="geometry">
            <mxPoint x="296" y="391" as="sourcePoint" />
            <mxPoint x="1002" y="390.99" as="targetPoint" />
            <Array as="points">
              <mxPoint x="601" y="391" />
              <mxPoint x="601" y="391" />
            </Array>
          </mxGeometry>
        </mxCell>
        <mxCell id="uCjRWYr6qWFUnSm8u8Xy-34" style="edgeStyle=orthogonalEdgeStyle;rounded=0;orthogonalLoop=1;jettySize=auto;html=1;entryX=-0.5;entryY=0.04;entryDx=0;entryDy=0;entryPerimeter=0;dashed=1;dashPattern=1 1;" edge="1" parent="1">
          <mxGeometry relative="1" as="geometry">
            <mxPoint x="156" y="529" as="sourcePoint" />
            <mxPoint x="281" y="529" as="targetPoint" />
            <Array as="points">
              <mxPoint x="181" y="529" />
              <mxPoint x="181" y="529" />
            </Array>
          </mxGeometry>
        </mxCell>
        <mxCell id="uCjRWYr6qWFUnSm8u8Xy-37" value="&lt;b&gt;&lt;font style=&quot;font-size: 13px&quot;&gt;Carousel&lt;/font&gt;&lt;/b&gt;" style="text;html=1;align=center;verticalAlign=middle;resizable=0;points=[];autosize=1;" vertex="1" parent="1">
          <mxGeometry x="186" y="510" width="70" height="20" as="geometry" />
        </mxCell>
        <mxCell id="uCjRWYr6qWFUnSm8u8Xy-41" style="edgeStyle=orthogonalEdgeStyle;rounded=0;orthogonalLoop=1;jettySize=auto;html=1;entryX=-0.2;entryY=0.067;entryDx=0;entryDy=0;entryPerimeter=0;dashed=1;dashPattern=1 1;" edge="1" parent="1" source="uCjRWYr6qWFUnSm8u8Xy-32" target="uCjRWYr6qWFUnSm8u8Xy-33">
          <mxGeometry relative="1" as="geometry">
            <Array as="points">
              <mxPoint x="530" y="549" />
              <mxPoint x="530" y="549" />
            </Array>
          </mxGeometry>
        </mxCell>
        <mxCell id="uCjRWYr6qWFUnSm8u8Xy-43" style="edgeStyle=orthogonalEdgeStyle;rounded=0;orthogonalLoop=1;jettySize=auto;html=1;dashed=1;dashPattern=1 1;" edge="1" parent="1" source="uCjRWYr6qWFUnSm8u8Xy-33" target="uCjRWYr6qWFUnSm8u8Xy-32">
          <mxGeometry relative="1" as="geometry">
            <Array as="points">
              <mxPoint x="690" y="577" />
              <mxPoint x="690" y="577" />
            </Array>
          </mxGeometry>
        </mxCell>
        <mxCell id="uCjRWYr6qWFUnSm8u8Xy-45" style="edgeStyle=orthogonalEdgeStyle;rounded=0;orthogonalLoop=1;jettySize=auto;html=1;dashed=1;" edge="1" parent="1">
          <mxGeometry relative="1" as="geometry">
            <mxPoint x="292" y="597" as="sourcePoint" />
            <mxPoint x="156.5" y="597" as="targetPoint" />
            <Array as="points">
              <mxPoint x="277" y="597" />
              <mxPoint x="277" y="597" />
            </Array>
          </mxGeometry>
        </mxCell>
        <mxCell id="uCjRWYr6qWFUnSm8u8Xy-48" style="edgeStyle=orthogonalEdgeStyle;rounded=0;orthogonalLoop=1;jettySize=auto;html=1;" edge="1" parent="1" target="uCjRWYr6qWFUnSm8u8Xy-47">
          <mxGeometry relative="1" as="geometry">
            <mxPoint x="155" y="637" as="sourcePoint" />
            <Array as="points">
              <mxPoint x="180" y="637" />
              <mxPoint x="180" y="637" />
            </Array>
          </mxGeometry>
        </mxCell>
        <mxCell id="uCjRWYr6qWFUnSm8u8Xy-55" value="" style="html=1;points=[];perimeter=orthogonalPerimeter;rounded=0;shadow=0;comic=0;labelBackgroundColor=none;strokeWidth=1;fontFamily=Verdana;fontSize=12;align=center;fillColor=#f5f5f5;strokeColor=#666666;fontColor=#333333;" vertex="1" parent="1">
          <mxGeometry x="436" y="237" width="10" height="20" as="geometry" />
        </mxCell>
        <mxCell id="uCjRWYr6qWFUnSm8u8Xy-56" value="" style="html=1;verticalAlign=bottom;endArrow=block;entryX=0;entryY=0;labelBackgroundColor=none;fontFamily=Verdana;fontSize=12;edgeStyle=elbowEdgeStyle;elbow=vertical;" edge="1" parent="1" target="uCjRWYr6qWFUnSm8u8Xy-55">
          <mxGeometry relative="1" as="geometry">
            <mxPoint x="296" y="237" as="sourcePoint" />
          </mxGeometry>
        </mxCell>
        <mxCell id="uCjRWYr6qWFUnSm8u8Xy-57" value="&lt;font style=&quot;font-size: 12px&quot;&gt;&lt;b&gt;get flags&lt;/b&gt;&lt;/font&gt;" style="edgeLabel;html=1;align=center;verticalAlign=middle;resizable=0;points=[];" vertex="1" connectable="0" parent="uCjRWYr6qWFUnSm8u8Xy-56">
          <mxGeometry y="18" relative="1" as="geometry">
            <mxPoint x="-18" y="17" as="offset" />
          </mxGeometry>
        </mxCell>
        <mxCell id="uCjRWYr6qWFUnSm8u8Xy-58" style="edgeStyle=orthogonalEdgeStyle;rounded=0;orthogonalLoop=1;jettySize=auto;html=1;dashed=1;" edge="1" parent="1" source="uCjRWYr6qWFUnSm8u8Xy-55">
          <mxGeometry relative="1" as="geometry">
            <mxPoint x="297" y="257" as="targetPoint" />
            <Array as="points">
              <mxPoint x="297" y="257" />
            </Array>
          </mxGeometry>
        </mxCell>
        <mxCell id="uCjRWYr6qWFUnSm8u8Xy-60" style="edgeStyle=orthogonalEdgeStyle;rounded=0;orthogonalLoop=1;jettySize=auto;html=1;entryX=0.2;entryY=0.226;entryDx=0;entryDy=0;entryPerimeter=0;startArrow=none;startFill=0;" edge="1" parent="1">
          <mxGeometry relative="1" as="geometry">
            <mxPoint x="295" y="414" as="sourcePoint" />
            <mxPoint x="872" y="414.0060000000001" as="targetPoint" />
            <Array as="points">
              <mxPoint x="436" y="414" />
              <mxPoint x="436" y="414" />
            </Array>
          </mxGeometry>
        </mxCell>
        <mxCell id="uCjRWYr6qWFUnSm8u8Xy-62" style="edgeStyle=orthogonalEdgeStyle;rounded=0;orthogonalLoop=1;jettySize=auto;html=1;dashed=1;startArrow=none;startFill=0;" edge="1" parent="1">
          <mxGeometry relative="1" as="geometry">
            <mxPoint x="870" y="442" as="sourcePoint" />
            <mxPoint x="297" y="442" as="targetPoint" />
            <Array as="points">
              <mxPoint x="297" y="442" />
            </Array>
          </mxGeometry>
        </mxCell>
        <mxCell id="uCjRWYr6qWFUnSm8u8Xy-64" style="edgeStyle=orthogonalEdgeStyle;rounded=0;orthogonalLoop=1;jettySize=auto;html=1;entryX=-0.4;entryY=0.567;entryDx=0;entryDy=0;entryPerimeter=0;startArrow=none;startFill=0;" edge="1" parent="1" source="7baba1c4bc27f4b0-10" target="uCjRWYr6qWFUnSm8u8Xy-63">
          <mxGeometry relative="1" as="geometry">
            <Array as="points">
              <mxPoint x="451" y="475" />
              <mxPoint x="451" y="475" />
            </Array>
          </mxGeometry>
        </mxCell>
      </root>
    </mxGraphModel>
  </diagram>
</mxfile>
